<svg xmlns="http://www.w3.org/2000/svg" width="56.819" height="50.636" viewBox="0 0 56.819 50.636">
  <path id="Path_1599" data-name="Path 1599" d="M56.82,44.46h0a6.175,6.175,0,0,1-6.176,6.176H6.176A6.175,6.175,0,0,1,0,44.46V8.639A4.941,4.941,0,0,1,4.941,3.7H29.856l10-3.624A1.223,1.223,0,0,1,41.426.8L42.48,3.7h4.458a4.941,4.941,0,0,1,4.941,4.941v2.47A4.941,4.941,0,0,1,56.82,16.05ZM4.941,6.169h0a2.47,2.47,0,0,0,0,4.941H9.43c.016-.006.026-.02.042-.026L23.037,6.169Zm35.917.224L39.546,2.78h0L37.012,3.7h0L30.2,6.169h-.012L16.557,11.109H42.573Zm8.55,2.247a2.471,2.471,0,0,0-2.47-2.47H43.377l1.8,4.941h4.236Zm2.47,4.941H4.941a4.886,4.886,0,0,1-2.47-.686V44.46a3.706,3.706,0,0,0,3.706,3.706H50.644a3.705,3.705,0,0,0,3.706-3.706V35.814H49.408a4.941,4.941,0,1,1,0-9.882h4.941V16.05a2.471,2.471,0,0,0-2.47-2.47m2.47,19.763V28.4H49.408a2.47,2.47,0,1,0,0,4.941Zm-4.941-3.706h2.47v2.47h-2.47Z" fill="#fff" fill-rule="evenodd"/>
</svg>
