<?xml version="1.0" encoding="utf-8"?>
<!-- Generator: Adobe Illustrator 24.0.1, SVG Export Plug-In . SVG Version: 6.00 Build 0)  -->
<svg version="1.1" id="Layer_1" xmlns="http://www.w3.org/2000/svg" xmlns:xlink="http://www.w3.org/1999/xlink" x="0px" y="0px"
	 viewBox="0 0 16 16" style="enable-background:new 0 0 16 16;" xml:space="preserve">
<style type="text/css">
	.st0{fill:#F26522;}
</style>
<path class="st0" d="M14.67,7.97c0.69-0.7,1.08-1.62,1.08-2.61s-0.38-1.91-1.08-2.61c-0.7-0.7-1.62-1.08-2.61-1.08
	s-1.91,0.38-2.61,1.08L8,4.21L6.54,2.75c-0.7-0.7-1.62-1.08-2.61-1.08c-0.99,0-1.91,0.38-2.61,1.08c-1.44,1.44-1.44,3.78,0,5.21
	l0.62,0.62H1.29v1.63h2.29L8,14.64l4.42-4.42h2.29V8.59h-0.66L14.67,7.97z M8,12.34l-2.12-2.12h4.25L8,12.34z M11.75,8.59h-7.5
	L2.48,6.82c-0.39-0.39-0.6-0.91-0.6-1.46s0.21-1.07,0.6-1.46c0.39-0.39,0.91-0.6,1.46-0.6C4.49,3.3,5,3.51,5.39,3.9L8,6.51
	l2.61-2.61c0.39-0.39,0.91-0.6,1.46-0.6s1.07,0.21,1.46,0.6c0.8,0.8,0.8,2.11,0,2.91L11.75,8.59z"/>
</svg>
