<svg xmlns="http://www.w3.org/2000/svg" width="55.604" height="54.736" viewBox="0 0 55.604 54.736">
  <path id="Path_1656" data-name="Path 1656" d="M1.033,53.736A1.034,1.034,0,0,1,.3,51.972a17.4,17.4,0,0,0,5.13-12.386V1.033A1.033,1.033,0,0,1,6.467,0H44.494a1.032,1.032,0,0,1,1.032,1.033v20.82a1.033,1.033,0,1,1-2.065,0V2.067H7.5V39.587A19.439,19.439,0,0,1,3.331,51.67H26.642a1.033,1.033,0,1,1,0,2.066Zm30.679-3.912a1.033,1.033,0,0,1,1.461-1.462A11.281,11.281,0,1,0,30.246,37.5l.235-.235a1.034,1.034,0,0,1,1.462,1.462l-2.379,2.378a1.035,1.035,0,0,1-1.462,0L25.724,38.73a1.034,1.034,0,0,1,1.462-1.462l.821.822a13.338,13.338,0,1,1,3.706,11.734Zm12.461-4.97-3.745-3.745a1.042,1.042,0,0,1-.3-.732V32.464a1.033,1.033,0,1,1,2.065,0V39.95l3.444,3.443a1.033,1.033,0,0,1-1.462,1.461ZM13.627,36.088a1.034,1.034,0,0,1,0-2.067h8.429a1.034,1.034,0,1,1,0,2.067Zm0-7a1.033,1.033,0,1,1,0-2.066h13.4a1.033,1.033,0,0,1,1.033,1.033h0a1.033,1.033,0,0,1-1.033,1.032Zm0-7a1.033,1.033,0,1,1,0-2.066H37.333a1.034,1.034,0,0,1,1.033,1.033h0a1.033,1.033,0,0,1-1.033,1.032Zm0-7a1.034,1.034,0,0,1,0-2.067H37.333a1.034,1.034,0,0,1,0,2.067Z" transform="translate(0.594 0.5)" fill="#fff" stroke="rgba(0,0,0,0)" stroke-width="1"/>
</svg>
