<svg xmlns="http://www.w3.org/2000/svg" width="34.723" height="40.863" viewBox="0 0 34.723 40.863">
  <path id="Path_1601" data-name="Path 1601" d="M31.361,10.519a14.948,14.948,0,0,1-1.275,4.822,15.083,15.083,0,0,0,1.25-4.838l.025.016,0-.014-.027,0c.063-.637.1-1.3.1-2C31.444.941,23.576,0,19.633,0a20.236,20.236,0,0,0-2.188.106H7.345c-1.872,0-2.028,1.153-2.028,1.153L1.76,23.961S.276,33.47.035,35.009c-.186,1.207.409,1.335.675,1.335a.6.6,0,0,0,.12,0H7.994a1.123,1.123,0,0,0,1.075-.781c-.014.033-.02.069-.036.1l-.6,3.859c-.186,1.207.408,1.335.674,1.335a.815.815,0,0,0,.121,0H16.38c1.221,0,1.247-1.591,1.247-1.591s.875-6.1,1.193-7.718a1.917,1.917,0,0,1,2.148-1.823,37.379,37.379,0,0,0,5.107-.5c2.706-.4,8.648-4.059,8.648-12.4a6.77,6.77,0,0,0-3.362-6.3m-1.32,4.91a12.4,12.4,0,0,1-.607,1.139,12.034,12.034,0,0,0,.607-1.139M8.424,24.34C8.136,25.8,7.21,32.2,6.965,33.966H2.588c.485-3.115,1.507-9.64,1.5-9.637L7.523,2.477H17.747a18.577,18.577,0,0,1,1.886-.106A15.273,15.273,0,0,1,25.98,3.553a4.977,4.977,0,0,1,3.078,4.931C29.058,19.1,20.519,20.3,17.9,20.415h-.018c-2.126.095-4.136.183-4.982.183A4.273,4.273,0,0,0,8.424,24.34M29.21,16.911c-.168.257-.339.51-.521.747.182-.238.354-.489.521-.747m-.9,1.2c-.147.172-.293.343-.447.5.153-.161.3-.331.447-.5m-.958,1c-.125.115-.25.23-.378.339.128-.11.253-.224.378-.339m-1.008.841c-.1.077-.206.152-.311.225.1-.073.208-.148.311-.225M9.106,35.454a2.483,2.483,0,0,0,.108-.431,2.449,2.449,0,0,1-.108.431m.146-.7c0,.072-.02.143-.03.215.016-.127.019-.215.019-.215s1.193-8.331,1.514-9.947A1.919,1.919,0,0,1,12.9,22.983c.9,0,2.882-.087,5.107-.186.306-.013.624-.039.947-.072-.32.034-.633.058-.936.072-2.24.1-4.217.186-5.107.186a1.929,1.929,0,0,0-2.148,1.824c-.325,1.612-1.514,9.947-1.514,9.947M25.3,20.663c-.081.049-.163.1-.245.143.082-.047.164-.094.245-.143m-1.068.581c-.061.03-.121.057-.182.085.061-.028.121-.055.182-.085m-1.08.473c-.04.016-.08.029-.121.045.041-.016.081-.029.121-.045m-1.078.375c-.021.007-.042.012-.063.018.021-.006.042-.011.063-.018m-1.062.287-.017,0,.017,0m4.726,4.467a36.916,36.916,0,0,1-4.775.478,4.275,4.275,0,0,0-4.475,3.742c-.277,1.4-.938,5.957-1.145,7.416H10.967l.339-2.189a4.983,4.983,0,0,0,.3-1.313c.328-2.334,1.185-8.222,1.459-9.629,1,0,2.874-.092,5.029-.186h.033c5.461-.241,11.474-2.794,14.209-8.962.015.194.024.393.024.6,0,6.931-4.855,9.783-6.624,10.042" transform="translate(0 0)" fill="#fff"/>
</svg>
