<svg xmlns="http://www.w3.org/2000/svg" width="61.304" height="53.909" viewBox="0 0 61.304 53.909">
  <path id="Path_1657" data-name="Path 1657" d="M0,20.954V0H20.954L52.7,31.748,31.748,52.7ZM2.311,20,31.748,49.434,49.434,31.748,20,2.311H2.311ZM38.324,50.251l18.5-18.5L27.053,1.972,28.688.338,60.1,31.748,39.958,51.885ZM7.394,13.172a5.777,5.777,0,1,1,5.777,5.777A5.784,5.784,0,0,1,7.394,13.172Zm2.311,0a3.466,3.466,0,1,0,3.466-3.466A3.469,3.469,0,0,0,9.706,13.172Z" transform="translate(0.5 0.5)" fill="#fff" stroke="rgba(0,0,0,0)" stroke-width="1"/>
</svg>
