<svg xmlns="http://www.w3.org/2000/svg" xmlns:xlink="http://www.w3.org/1999/xlink" width="46.5" height="42.742" viewBox="0 0 46.5 42.742">
  <defs>
    <clipPath id="clip-path">
      <rect id="Rectangle_734" data-name="Rectangle 734" width="46.5" height="42.742" fill="#fff"/>
    </clipPath>
  </defs>
  <g id="Group_1635" data-name="Group 1635" clip-path="url(#clip-path)">
    <path id="Path_1602" data-name="Path 1602" d="M45.047,8.293H4.961L11.2,2.055,9.145,0,.426,8.719a1.452,1.452,0,0,0,0,2.055l8.719,8.719L11.2,17.438,4.961,11.2H43.594V24.277H46.5V9.746a1.453,1.453,0,0,0-1.453-1.453" transform="translate(0 0)" fill="#fff"/>
    <path id="Path_1603" data-name="Path 1603" d="M37.355,17.492,35.3,19.547l6.238,6.238H2.906V12.707H0V27.238a1.453,1.453,0,0,0,1.453,1.453H41.539L35.3,34.93l2.055,2.055,8.719-8.719a1.451,1.451,0,0,0,0-2.055Z" transform="translate(0 5.758)" fill="#fff"/>
  </g>
</svg>
